<?xml version="1.0" standalone="no"?>
<!DOCTYPE svg PUBLIC "-//W3C//DTD SVG 20010904//EN"
 "http://www.w3.org/TR/2001/REC-SVG-20010904/DTD/svg10.dtd">
<svg version="1.0" xmlns="http://www.w3.org/2000/svg"
 width="511.000000pt" height="61.000000pt" viewBox="0 0 511.000000 61.000000"
 preserveAspectRatio="xMidYMid meet">

<g transform="translate(0.000000,61.000000) scale(0.100000,-0.100000)"
fill="#000000" stroke="none">
<path d="M680 565 c-14 -17 -80 -294 -80 -336 0 -31 32 -48 55 -29 7 6 21 46
30 88 20 88 28 102 61 102 39 0 46 -29 27 -117 -19 -94 -15 -116 24 -111 24 3
29 9 36 43 5 22 13 56 19 74 30 98 -1 159 -86 168 -33 4 -46 10 -42 19 3 7 8
29 12 48 10 55 -26 87 -56 51z"/>
<path d="M1216 571 c-11 -17 -65 -267 -67 -311 -3 -57 6 -73 37 -66 15 4 33 1
47 -9 34 -24 91 -19 127 12 98 82 58 253 -59 253 l-38 0 10 50 c5 27 7 56 4
65 -7 16 -52 21 -61 6z m108 -207 c23 -22 20 -76 -4 -102 -57 -61 -122 25 -69
92 23 29 50 33 73 10z"/>
<path d="M1266 338 c-20 -28 -20 -52 -1 -68 13 -11 14 -10 9 4 -8 21 23 69 39
59 7 -4 7 0 -2 10 -18 22 -27 21 -45 -5z"/>
<path d="M1297 522 c-6 -51 -4 -57 12 -47 13 7 15 82 2 89 -5 3 -11 -16 -14
-42z"/>
<path d="M757 517 c-6 -45 -4 -53 12 -42 13 7 15 72 2 79 -5 3 -11 -13 -14
-37z"/>
<path d="M2780 545 c-7 -8 -15 -35 -17 -59 l-5 -44 -54 5 c-40 4 -60 2 -78
-11 -71 -46 -83 -178 -23 -235 28 -25 87 -38 113 -23 13 7 24 6 42 -6 44 -29
54 -3 70 187 12 137 12 174 2 186 -16 19 -34 19 -50 0z m-46 -187 c20 -28 20
-51 1 -88 -16 -32 -41 -38 -76 -20 -13 8 -19 21 -19 48 0 47 24 82 55 82 13 0
31 -10 39 -22z"/>
<path d="M2670 341 c-13 -25 -13 -58 0 -66 6 -3 10 3 10 15 0 11 9 28 19 37
11 9 18 20 15 25 -9 15 -33 8 -44 -11z"/>
<path d="M324 536 c-15 -40 21 -80 54 -60 37 24 21 74 -25 74 -13 0 -26 -6
-29 -14z"/>
<path d="M2535 538 c-3 -7 -27 -89 -54 -183 -37 -124 -47 -173 -39 -182 15
-18 36 -16 47 5 19 36 103 343 97 358 -7 17 -45 19 -51 2z"/>
<path d="M2604 491 c-9 -46 -9 -48 8 -37 11 7 18 23 18 43 0 50 -15 47 -26 -6z"/>
<path d="M2860 498 c0 -25 -3 -61 -6 -79 l-6 -34 18 24 c12 17 17 39 15 70 -4
63 -21 78 -21 19z"/>
<path d="M420 507 c0 -14 -7 -30 -15 -37 -12 -10 -13 -15 -4 -21 16 -10 38 18
39 48 0 12 -4 25 -10 28 -6 3 -10 -4 -10 -18z"/>
<path d="M518 519 c-9 -5 -19 -23 -23 -39 -5 -23 -12 -30 -30 -30 -25 0 -38
-21 -29 -45 4 -8 12 -15 20 -15 17 0 17 -10 -1 -85 -21 -87 -19 -122 5 -130
33 -10 45 9 65 99 17 79 20 85 47 90 38 8 47 34 20 57 -15 12 -22 28 -22 53 0
40 -24 61 -52 45z"/>
<path d="M3305 510 c-4 -14 2 -30 20 -52 19 -23 25 -39 21 -57 -5 -26 47 -203
67 -228 14 -18 56 -16 64 3 3 8 -1 33 -10 55 -8 21 -12 41 -8 43 4 3 31 -11
61 -30 63 -39 103 -42 108 -7 2 14 -5 27 -20 36 -13 8 -42 27 -66 41 l-43 27
26 44 c21 36 24 48 15 64 -6 12 -17 21 -25 21 -16 0 -48 -38 -65 -79 -7 -17
-16 -29 -20 -26 -5 3 -18 36 -31 73 -12 37 -26 73 -32 80 -15 19 -55 15 -62
-8z"/>
<path d="M3405 480 c17 -48 34 -80 35 -63 0 14 -38 103 -44 103 -3 0 1 -18 9
-40z"/>
<path d="M590 481 c0 -16 5 -33 10 -36 6 -4 10 6 10 24 0 16 -4 33 -10 36 -6
4 -10 -6 -10 -24z"/>
<path d="M4132 477 c-6 -7 -8 -40 -5 -80 2 -39 0 -67 -5 -67 -5 0 -28 25 -51
55 -42 56 -54 62 -81 45 -11 -7 -14 -26 -12 -76 1 -36 -1 -70 -4 -75 -3 -5
-25 18 -50 51 -45 61 -62 71 -84 45 -18 -22 -10 -39 60 -130 67 -87 86 -101
120 -90 17 5 20 15 20 71 0 35 4 64 9 64 6 0 24 -20 42 -45 25 -35 39 -45 60
-45 15 0 30 3 32 8 12 19 19 240 8 261 -13 23 -43 28 -59 8z"/>
<path d="M4218 444 c4 -29 7 -33 19 -22 10 8 11 14 4 16 -6 2 -11 10 -11 17 0
8 -4 16 -8 19 -4 2 -6 -11 -4 -30z"/>
<path d="M195 458 c-11 -7 -37 -11 -58 -9 -31 2 -43 -3 -72 -32 -31 -31 -35
-41 -35 -86 0 -63 19 -111 55 -139 33 -26 91 -29 123 -6 27 19 36 14 27 -15
-8 -25 -36 -35 -100 -36 -44 0 -50 -3 -53 -22 -5 -32 30 -46 101 -41 54 4 63
8 93 41 42 46 43 76 8 224 -33 136 -42 148 -89 121z m5 -108 c15 -28 12 -76
-6 -94 -31 -31 -72 -11 -89 42 -22 75 59 119 95 52z"/>
<path d="M126 344 c-10 -26 -7 -41 14 -65 l20 -24 -12 29 c-11 25 -10 30 9 46
12 10 19 20 16 24 -12 12 -41 6 -47 -10z"/>
<path d="M2231 444 c-17 -14 -35 -22 -41 -19 -20 13 -81 7 -98 -8 -10 -9 -28
-13 -43 -10 -48 9 -54 -14 -29 -129 27 -124 34 -138 66 -138 35 0 38 18 19
109 -20 90 -16 111 19 111 31 0 37 -8 61 -99 22 -83 44 -106 72 -78 17 16 17
21 0 101 -18 91 -16 111 13 119 32 8 47 -14 65 -93 18 -82 28 -100 56 -100 31
0 39 31 24 86 -7 27 -16 66 -20 88 -14 83 -100 115 -164 60z"/>
<path d="M3028 453 c-9 -13 -27 -18 -61 -19 -66 -1 -98 -32 -105 -103 -5 -61
10 -102 50 -136 38 -32 106 -35 132 -6 13 15 26 18 52 14 34 -6 34 -5 34 33 0
22 -5 57 -10 79 -6 22 -13 56 -16 75 -11 69 -48 100 -76 63z m-1 -102 c13 -17
17 -34 13 -66 -8 -78 -104 -49 -104 32 0 59 56 80 91 34z"/>
<path d="M2955 330 c-3 -10 -1 -28 5 -40 12 -22 24 -28 17 -7 -7 20 13 49 30
43 13 -5 14 -4 3 9 -18 21 -47 19 -55 -5z"/>
<path d="M4389 452 c-8 -13 -21 -16 -54 -14 -36 3 -48 -1 -75 -25 -57 -51 -52
-165 11 -218 39 -32 107 -35 133 -6 13 15 26 18 52 14 33 -6 34 -5 34 30 0 42
-25 170 -41 210 -13 31 -43 36 -60 9z m-15 -93 c20 -15 26 -29 26 -58 0 -20
-5 -42 -12 -49 -36 -36 -105 17 -94 72 12 58 37 69 80 35z"/>
<path d="M4315 330 c-3 -10 -1 -28 5 -40 12 -22 24 -28 17 -7 -7 20 13 49 30
43 13 -5 14 -4 3 9 -18 21 -47 19 -55 -5z"/>
<path d="M4563 448 c-13 -16 -41 -148 -45 -208 -3 -44 -2 -45 27 -45 29 0 30
2 50 84 21 86 41 113 75 104 30 -8 33 -35 14 -123 -16 -73 -16 -82 -2 -96 10
-10 24 -14 36 -10 16 6 25 25 41 94 22 94 22 132 0 158 -22 26 -74 44 -108 38
-20 -4 -31 -2 -31 5 0 15 -45 14 -57 -1z"/>
<path d="M4832 448 c-9 -11 -14 -30 -26 -98 -1 -8 -8 -40 -16 -72 -16 -70 -10
-90 27 -86 29 3 28 -1 64 149 11 44 39 55 71 30 l21 -18 -18 -87 c-17 -79 -17
-88 -3 -103 10 -9 24 -13 36 -9 16 6 25 26 41 97 25 109 25 113 4 146 -22 33
-73 54 -112 47 -20 -4 -31 -2 -31 5 0 15 -45 14 -58 -1z"/>
<path d="M280 450 c1 -3 7 -30 15 -60 l14 -55 -3 48 c-2 27 -8 53 -15 60 -6 6
-11 9 -11 7z"/>
<path d="M901 441 c-17 -11 -16 -179 1 -217 16 -35 57 -54 116 -54 54 0 101
27 101 58 0 9 3 46 7 82 3 36 2 81 -3 100 -8 30 -13 35 -39 35 l-29 0 -3 -94
c-3 -97 -11 -121 -42 -121 -37 0 -46 26 -49 132 -1 70 -25 101 -60 79z"/>
<path d="M1551 418 c-35 -35 -47 -80 -36 -135 10 -52 21 -71 58 -93 77 -47
197 -1 142 54 -12 12 -21 13 -40 4 -69 -31 -123 57 -72 120 7 9 28 12 61 10
48 -3 51 -1 54 21 5 35 -22 51 -84 51 -45 0 -56 -4 -83 -32z"/>
<path d="M1776 425 c-94 -87 -38 -255 86 -255 54 0 84 17 109 64 32 61 21 126
-31 178 -33 34 -43 38 -87 38 -39 0 -56 -5 -77 -25z m120 -62 c17 -22 18 -95
2 -111 -7 -7 -24 -12 -40 -12 -21 0 -31 8 -44 31 -17 34 -12 94 9 102 26 11
60 6 73 -10z"/>
<path d="M1837 353 c-10 -10 -8 -66 3 -83 7 -11 10 -5 10 23 0 24 5 40 15 43
8 4 15 10 15 15 0 10 -33 12 -43 2z"/>
<path d="M3121 410 c14 -64 17 -70 18 -29 1 19 -5 44 -13 55 -13 17 -14 14 -5
-26z"/>
<path d="M3171 431 c-8 -14 -16 -183 -12 -238 2 -21 49 -15 61 6 5 11 10 44
10 73 0 61 17 93 56 102 22 6 25 11 19 34 -9 38 -20 46 -43 33 -14 -7 -23 -8
-27 -1 -10 17 -54 11 -64 -9z"/>
<path d="M3571 436 c-1 -10 -11 -34 -22 -53 -18 -28 -19 -37 -9 -43 22 -14 57
62 42 92 -9 20 -11 20 -11 4z"/>
<path d="M3649 421 c-56 -56 -24 -125 65 -142 27 -5 52 -11 55 -14 13 -14 -24
-28 -68 -26 -41 2 -49 -1 -54 -19 -8 -29 28 -50 86 -50 40 0 53 5 78 29 58 58
32 123 -56 141 -85 18 -89 44 -7 45 37 0 47 4 50 18 6 31 -17 47 -70 47 -41 0
-54 -5 -79 -29z"/>
<path d="M4486 390 c20 -89 20 -89 26 -52 2 17 1 32 -4 32 -4 0 -8 10 -8 23 0
13 -7 32 -14 43 -13 16 -13 10 0 -46z"/>
<path d="M337 433 c-9 -8 -7 -200 2 -233 5 -19 13 -25 36 -25 l30 0 -2 119
c-1 71 -7 124 -14 132 -12 15 -41 19 -52 7z"/>
<path d="M1140 424 c0 -8 5 -12 10 -9 6 4 8 11 5 16 -9 14 -15 11 -15 -7z"/>
<path d="M2418 375 c9 -36 20 -65 25 -65 4 0 6 8 3 18 -3 9 -10 36 -16 59 -18
69 -28 58 -12 -12z"/>
<path d="M3820 410 c0 -19 3 -21 12 -12 9 9 9 15 0 24 -9 9 -12 7 -12 -12z"/>
<path d="M984 345 c3 -43 10 -83 15 -88 6 -6 8 21 4 69 -3 44 -10 84 -16 89
-6 7 -7 -16 -3 -70z"/>
<path d="M1431 370 c6 -17 9 -46 7 -65 -3 -24 0 -35 9 -35 7 0 13 10 13 23 0
31 -19 95 -30 102 -5 3 -4 -8 1 -25z"/>
<path d="M5066 372 c6 -30 -17 -152 -38 -205 -7 -19 -20 -30 -39 -34 -33 -6
-29 -23 6 -23 13 0 32 11 43 24 24 31 56 184 47 225 -8 40 -27 52 -19 13z"/>
<path d="M421 374 c1 -11 4 -30 8 -44 7 -24 8 -24 13 8 3 20 0 36 -9 43 -10 9
-13 7 -12 -7z"/>
<path d="M2266 372 c-2 -4 3 -41 12 -82 19 -94 12 -128 -28 -137 -16 -3 -27
-9 -24 -14 9 -15 50 -10 67 9 21 23 21 58 2 137 -8 37 -10 64 -4 70 5 5 9 13
9 17 0 10 -27 11 -34 0z"/>
<path d="M726 362 c-3 -5 -12 -42 -22 -83 -20 -89 -37 -112 -78 -106 -26 4
-27 3 -11 -10 26 -18 59 -16 77 5 9 9 24 52 33 95 11 50 22 77 31 77 8 0 11 6
8 15 -7 16 -30 20 -38 7z"/>
<path d="M1617 353 c-10 -10 -8 -71 2 -78 5 -3 11 9 13 27 3 28 7 34 32 36 16
2 32 -2 37 -10 7 -10 9 -9 9 3 0 23 -75 41 -93 22z"/>
<path d="M3290 353 c-29 -10 -40 -37 -40 -94 0 -68 -21 -102 -64 -101 -20 0
-24 -3 -15 -9 8 -5 26 -9 41 -9 38 0 58 33 58 96 0 66 7 83 37 95 36 13 20 35
-17 22z"/>
<path d="M4637 353 c-2 -5 -10 -33 -16 -63 -17 -74 -30 -108 -47 -114 -7 -3
-41 -3 -75 -1 -49 4 -72 1 -105 -16 -36 -17 -49 -19 -81 -10 -34 9 -36 9 -19
-4 26 -20 99 -19 138 1 24 13 46 15 94 10 85 -9 96 4 120 137 3 21 13 41 20
44 8 3 14 9 14 14 0 11 -37 12 -43 2z"/>
<path d="M4907 353 c-2 -5 -10 -33 -16 -63 -25 -110 -40 -128 -100 -115 -24 5
-30 2 -36 -15 -4 -12 -18 -23 -36 -27 -16 -3 -26 -9 -23 -14 10 -17 51 -9 74
16 16 17 30 23 46 19 54 -14 74 11 95 116 6 34 18 64 25 67 8 3 14 9 14 14 0
11 -37 12 -43 2z"/>
<path d="M544 259 c-20 -93 -45 -121 -93 -103 -18 7 -33 6 -50 -2 -14 -7 -33
-9 -44 -5 -17 6 -25 2 -42 -22 -43 -64 -116 -94 -190 -77 -36 8 -38 7 -21 -6
21 -15 48 -19 106 -14 47 3 84 23 117 65 23 29 35 35 65 35 20 0 39 4 42 9 4
5 18 5 35 -2 42 -16 77 10 86 63 4 22 11 42 16 46 5 3 7 10 3 15 -3 5 0 16 6
24 7 8 9 15 6 15 -4 0 -2 9 4 20 9 17 8 20 -9 20 -16 0 -22 -13 -37 -81z"/>
<path d="M2110 328 c1 -7 7 -40 15 -73 8 -33 15 -69 15 -81 0 -31 -24 -56 -53
-56 -15 0 -24 -4 -21 -9 3 -5 21 -9 40 -9 52 0 62 30 41 127 -11 50 -13 80 -7
88 5 7 7 15 3 18 -11 12 -33 8 -33 -5z"/>
<path d="M3642 274 c10 -10 20 -16 22 -13 3 3 -5 11 -17 18 -21 13 -21 12 -5
-5z"/>
<path d="M2530 230 c-16 -60 -36 -90 -61 -90 -11 0 -17 -4 -14 -10 9 -14 51
-12 64 3 22 27 40 97 32 120 -8 20 -10 17 -21 -23z"/>
<path d="M2837 220 c-7 -52 -39 -85 -71 -75 -12 4 -42 6 -68 6 -26 -1 -57 3
-68 9 -11 6 -20 8 -20 6 0 -15 67 -37 104 -35 22 2 51 0 64 -5 51 -17 97 53
74 113 -8 23 -9 21 -15 -19z"/>
<path d="M3860 244 c0 -53 -68 -98 -145 -96 -39 1 -46 -1 -32 -9 28 -16 101
-13 136 6 18 9 40 29 50 45 10 17 22 27 27 22 5 -4 0 4 -11 18 -11 14 -21 27
-22 29 -2 2 -3 -4 -3 -15z"/>
<path d="M1430 236 c-19 -23 -8 -61 18 -64 44 -7 67 32 36 62 -19 20 -38 20
-54 2z"/>
<path d="M1997 234 c-23 -66 -108 -104 -176 -80 -47 16 -53 13 -13 -8 58 -30
124 -24 168 17 29 26 35 38 32 62 -3 27 -4 28 -11 9z"/>
<path d="M4063 226 c10 -61 -24 -104 -78 -97 -17 1 -17 0 -5 -8 22 -15 66 -13
83 4 24 24 30 82 11 108 l-16 22 5 -29z"/>
<path d="M852 195 c-9 -34 -19 -48 -38 -55 -14 -6 -30 -7 -36 -4 -7 4 -8 2 -4
-4 4 -7 23 -12 42 -12 31 0 37 4 53 42 17 40 18 78 2 78 -4 0 -12 -20 -19 -45z"/>
<path d="M3496 216 c12 -48 -20 -86 -65 -77 -7 1 -10 -2 -6 -8 10 -16 61 -13
79 5 9 8 16 26 16 39 0 13 5 25 11 27 7 2 0 12 -15 21 -27 18 -27 18 -20 -7z"/>
<path d="M4206 212 c-8 -23 -49 -44 -73 -36 -15 5 -16 4 -3 -5 23 -16 65 -13
87 7 18 15 19 20 8 35 -13 18 -13 18 -19 -1z"/>
<path d="M1376 181 c-26 -29 -78 -42 -121 -30 -19 5 -37 14 -40 20 -4 5 -15 7
-25 4 -11 -3 -29 -1 -40 5 -17 9 -25 8 -40 -5 -27 -24 -88 -36 -135 -25 -36 8
-38 7 -21 -6 31 -22 127 -21 163 2 25 16 98 13 132 -5 54 -29 166 2 152 42 -6
17 -8 17 -25 -2z"/>
<path d="M1504 174 c-12 -17 -29 -26 -46 -26 -15 0 -25 -4 -22 -9 3 -5 20 -9
38 -9 41 0 85 40 63 58 -10 9 -18 6 -33 -14z"/>
<path d="M3564 186 c21 -17 81 -22 71 -7 -3 5 -18 9 -34 9 -15 -1 -34 2 -42 6
-8 4 -5 0 5 -8z"/>
<path d="M1730 175 c-22 -27 -84 -37 -129 -21 -49 16 -53 13 -10 -10 43 -22
116 -20 147 3 13 10 24 22 24 28 -1 16 -18 17 -32 0z"/>
<path d="M2376 179 c2 -4 12 -9 23 -12 13 -3 18 -1 14 8 -2 8 -13 13 -23 12
-10 -1 -17 -4 -14 -8z"/>
<path d="M3030 159 c-28 -14 -43 -16 -75 -9 -36 8 -38 7 -21 -6 25 -18 103
-18 136 1 14 8 38 14 53 15 16 0 26 4 23 9 -9 15 -79 9 -116 -10z"/>
</g>
</svg>
